<svg width="33" height="32" viewBox="0 0 33 32" fill="none" xmlns="http://www.w3.org/2000/svg">
<g clip-path="url(#clip0_3_1226)">
<path d="M25.1483 4.21758L22.0914 5.40539L21.4938 4.07812L20.1376 4.22086C18.7767 4.36354 17.5916 4.84118 16.4583 5.71044C15.3248 4.83905 14.1481 4.36184 12.8059 4.2208L11.4492 4.07812L10.8521 5.40539L7.79451 4.21758L2.05896 17.2173L5.48379 18.486V27.9215L16.4576 22.5918L27.4315 27.9215V18.4947L30.8845 17.2177L25.1483 4.21758ZM7.17211 25.2681V19.1119L14.362 21.7762L7.17211 25.2681ZM15.6136 20.4844L4.30324 16.2933L8.69728 6.33415L10.1749 6.90864L6.40064 15.2935L15.6135 18.7352L15.6136 20.4844ZM15.6136 16.9778L9.25543 14.6027C10.3416 14.0635 11.6315 13.9936 12.8087 14.4589L15.6135 15.6516L15.6136 16.9778ZM15.6136 13.8614L13.457 12.9446C12.121 12.4133 10.6799 12.3767 9.37203 12.7856L12.4997 5.83835C12.6735 5.88134 14.0132 5.83988 15.6136 7.159V13.8614ZM17.3017 7.16004C18.8722 5.87215 20.3547 5.86039 20.4437 5.83841L23.5585 12.7587C22.3261 12.3772 20.9861 12.4286 19.6879 12.9446L17.3017 13.8937V7.16004ZM17.3017 15.6659L20.3271 14.4626C21.4712 14.0073 22.6649 14.0669 23.701 14.5961L17.3017 16.9795V15.6659ZM25.7432 25.2681L18.555 21.7768L25.7432 19.1188V25.2681ZM17.3017 20.4855V18.7356L26.5428 15.2941L22.7678 6.90864L24.2457 6.3342L28.6398 16.2929L17.3017 20.4855Z" fill="#0B0614"/>
</g>
<defs>
<clipPath id="clip0_3_1226">
<rect width="28.8255" height="28" fill="white" transform="translate(2.05896 2)"/>
</clipPath>
</defs>
</svg>
