<svg width="33" height="32" viewBox="0 0 33 32" fill="none" xmlns="http://www.w3.org/2000/svg">
<path d="M26.9202 7.84442C26.9202 7.14139 27.3603 6.5729 27.9046 6.5729C28.4489 6.5729 28.8891 7.14139 28.8891 7.84442V24.1589C28.8891 24.862 28.4489 25.4305 27.9046 25.4305C27.3603 25.4305 26.9202 24.862 26.9202 24.1589V7.84442ZM0.628967 10.7037C0.628967 10.0006 1.06911 9.43215 1.61342 9.43215C2.15774 9.43215 2.59788 10.0006 2.59788 10.7037V21.2963C2.59788 21.9994 2.15774 22.5679 1.61342 22.5679C1.06911 22.5679 0.628967 21.9994 0.628967 21.2963V10.7037ZM4.38448 7.84442C4.38448 7.14139 4.82462 6.5729 5.36894 6.5729C5.91325 6.5729 6.35339 7.14139 6.35339 7.84442V24.1589C6.35339 24.862 5.91325 25.4305 5.36894 25.4305C4.82462 25.4305 4.38448 24.862 4.38448 24.1589V7.84442ZM8.15562 4.67571C8.15562 3.97603 8.59055 3.41091 9.12445 3.41091C9.66095 3.41091 10.0933 3.97603 10.0933 4.67571V27.3277C10.0933 28.0273 9.65835 28.5925 9.12445 28.5925C8.58795 28.5925 8.15562 28.0273 8.15562 27.3277V4.67571ZM11.8955 1.27152C11.8955 0.568485 12.3356 0 12.88 0C13.4243 0 13.8644 0.568485 13.8644 1.27152V30.7285C13.8644 31.4315 13.4243 32 12.88 32C12.3356 32 11.8955 31.4315 11.8955 30.7285V1.27152ZM23.1647 10.7037C23.1647 10.0006 23.6048 9.43215 24.1491 9.43215C24.6934 9.43215 25.1336 10.0006 25.1336 10.7037V21.2963C25.1336 21.9994 24.6934 22.5679 24.1491 22.5679C23.6048 22.5679 23.1647 21.9994 23.1647 21.2963V10.7037ZM19.4091 7.84442C19.4091 7.14139 19.8493 6.5729 20.3936 6.5729C20.9379 6.5729 21.378 7.14139 21.378 7.84442V24.1589C21.378 24.862 20.9379 25.4305 20.3936 25.4305C19.8493 25.4305 19.4091 24.862 19.4091 24.1589V7.84442ZM15.6666 4.67571C15.6666 3.97603 16.1016 3.41091 16.6355 3.41091C17.172 3.41091 17.6043 3.97603 17.6043 4.67571V27.3277C17.6043 28.0273 17.1694 28.5925 16.6355 28.5925C16.099 28.5925 15.6666 28.0273 15.6666 27.3277V4.67571ZM30.6913 4.67571C30.6913 3.97603 31.1262 3.41091 31.6601 3.41091C32.1966 3.41091 32.629 3.97603 32.629 4.67571V27.3277C32.629 28.0273 32.194 28.5925 31.6601 28.5925C31.1236 28.5925 30.6913 28.0273 30.6913 27.3277V4.67571Z" fill="#C4C5C6"/>
</svg>
