<svg width="32" height="32" viewBox="0 0 32 32" fill="none" xmlns="http://www.w3.org/2000/svg">
<path d="M18.6667 4.35815C18.6667 3.42398 17.9093 2.66669 16.9752 2.66669H15.0248C14.0907 2.66669 13.3333 3.42398 13.3333 4.35815C13.3333 5.12995 12.8049 5.79071 12.0869 6.07397C11.9733 6.11879 11.8606 6.16553 11.7489 6.2141C11.0409 6.5221 10.1997 6.42861 9.65368 5.88265C8.99298 5.22193 7.92175 5.22193 7.26104 5.88265L5.88248 7.26119C5.22175 7.92193 5.22175 8.99318 5.88248 9.65391C6.42846 10.1999 6.52195 11.0412 6.21398 11.7492C6.16543 11.8608 6.11874 11.9734 6.07394 12.087C5.79068 12.8049 5.12991 13.3334 4.35812 13.3334C3.42395 13.3334 2.66666 14.0907 2.66666 15.0248V16.9752C2.66666 17.9094 3.42395 18.6667 4.35812 18.6667C5.12991 18.6667 5.79068 19.1951 6.07394 19.9131C6.11874 20.0267 6.16543 20.1392 6.21398 20.2508C6.52196 20.9588 6.42846 21.8002 5.88248 22.3462C5.22175 23.0068 5.22175 24.0782 5.88248 24.7388L7.26103 26.1174C7.92175 26.7782 8.99298 26.7782 9.6537 26.1174C10.1997 25.5715 11.0409 25.4779 11.749 25.7859C11.8606 25.8346 11.9733 25.8812 12.0869 25.926C12.8049 26.2094 13.3333 26.8702 13.3333 27.6419C13.3333 28.576 14.0907 29.3334 15.0248 29.3334H16.9752C17.9093 29.3334 18.6667 28.576 18.6667 27.6419C18.6667 26.8702 19.1951 26.2094 19.9131 25.926C20.0267 25.8812 20.1393 25.8346 20.2509 25.786C20.9589 25.478 21.8001 25.5715 22.346 26.1175C23.0067 26.7782 24.0779 26.7782 24.7385 26.1175L26.1173 24.7387C26.778 24.078 26.778 23.007 26.1173 22.3463C25.5713 21.8003 25.4779 20.9591 25.7859 20.2511C25.8345 20.1395 25.8812 20.0267 25.926 19.9131C26.2093 19.1952 26.8701 18.6667 27.6419 18.6667C28.576 18.6667 29.3333 17.9094 29.3333 16.9752V15.0248C29.3333 14.0907 28.576 13.3334 27.6419 13.3334C26.8701 13.3334 26.2093 12.8049 25.926 12.087C25.8812 11.9733 25.8345 11.8606 25.7859 11.7489C25.4779 11.0409 25.5713 10.1997 26.1173 9.65379C26.778 8.99313 26.778 7.92198 26.1173 7.26131L24.7385 5.88259C24.0779 5.22191 23.0067 5.22191 22.346 5.88259C21.8001 6.42853 20.9589 6.52202 20.2509 6.21405C20.1393 6.16549 20.0267 6.11878 19.9131 6.07397C19.1951 5.79071 18.6667 5.12994 18.6667 4.35815Z" stroke="#C4C5C6" stroke-width="2"/>
<path d="M21.3333 16C21.3333 18.9455 18.9455 21.3334 16 21.3334C13.0545 21.3334 10.6667 18.9455 10.6667 16C10.6667 13.0545 13.0545 10.6667 16 10.6667C18.9455 10.6667 21.3333 13.0545 21.3333 16Z" stroke="#C4C5C6" stroke-width="2"/>
</svg>
